<svg width="20" height="20" viewBox="0 0 20 20" fill="none" xmlns="http://www.w3.org/2000/svg">
<path d="M14.1667 20.0388H2.5C1.12168 20.0388 0 18.9171 0 17.5388V5.87207C0 4.49375 1.12168 3.37207 2.5 3.37207H9.16672C9.62754 3.37207 10 3.74547 10 4.20551C10 4.66543 9.62754 5.03879 9.16672 5.03879H2.5C2.03996 5.03879 1.66672 5.41293 1.66672 5.87207V17.5388C1.66672 17.9979 2.03996 18.3721 2.5 18.3721H14.1667C14.6266 18.3721 15 17.9979 15 17.5388V10.8721C15 10.4122 15.3725 10.0388 15.8333 10.0388C16.2941 10.0388 16.6667 10.4122 16.6667 10.8721V17.5388C16.6667 18.9171 15.545 20.0388 14.1667 20.0388Z" fill="#6B7280"/>
<path d="M14.4068 2.68597L7.81332 9.27925C7.75541 9.33742 7.71574 9.41124 7.69918 9.49163L7.11004 12.4384C7.08258 12.575 7.1259 12.7158 7.22418 12.815C7.26296 12.8537 7.30899 12.8843 7.35962 12.9052C7.41025 12.926 7.46449 12.9367 7.51926 12.9366C7.54582 12.9366 7.57344 12.9342 7.6009 12.9284L10.5468 12.3392C10.6284 12.3225 10.7025 12.2834 10.7601 12.225L17.3534 5.63159L14.4068 2.68597ZM19.39 0.648467C18.5776 -0.164072 17.2559 -0.164072 16.4441 0.648467L15.2909 1.80171L18.2367 4.74757L19.39 3.59417C19.7834 3.20171 20 2.67831 20 2.12167C20 1.56503 19.7834 1.04167 19.39 0.648467Z" fill="#E27B4F"/>
</svg>
