<svg width="25" height="24" viewBox="0 0 25 24" fill="none" xmlns="http://www.w3.org/2000/svg">
<g clip-path="url(#clip0_313_1703)">
<path d="M22.3906 3.5625H2.60938C1.44392 3.5625 0.5 4.51228 0.5 5.67188V18.3281C0.5 19.4946 1.45086 20.4375 2.60938 20.4375H22.3906C23.5463 20.4375 24.5 19.4986 24.5 18.3281V5.67188C24.5 4.51434 23.5598 3.5625 22.3906 3.5625ZM22.0952 4.96875L13.9916 13.0297C13.5931 13.4281 13.0634 13.6475 12.5 13.6475C11.9366 13.6475 11.4069 13.4281 11.0071 13.0284L2.90478 4.96875H22.0952ZM1.90625 18.0419V5.95898L7.98303 12.0037L1.90625 18.0419ZM2.90567 19.0312L8.98006 12.9955L10.0141 14.0241C10.6781 14.6881 11.561 15.0538 12.5 15.0538C13.439 15.0538 14.3219 14.6881 14.9846 14.0254L16.0199 12.9955L22.0943 19.0312H2.90567ZM23.0938 18.0419L17.017 12.0037L23.0938 5.95898V18.0419Z" fill="#154452"/>
</g>
<defs>
<clipPath id="clip0_313_1703">
<rect width="24" height="24" fill="white" transform="translate(0.5)"/>
</clipPath>
</defs>
</svg>
